<svg xmlns="http://www.w3.org/2000/svg" viewBox="0 0 607 564" width="607" height="564" role="img" aria-label="touheed-dev · language mix" font-family="ui-sans-serif,-apple-system,Segoe UI,Helvetica,Arial,sans-serif"><text x="303.5" y="25" text-anchor="middle" font-size="15" font-weight="700" fill="#e6edf3">touheed-dev · language mix</text><g transform="translate(267.3,289.0)"><polygon points="0.0,-212.0 183.6,-106.0 183.6,106.0 0.0,212.0 -183.6,106.0 -183.6,-106.0" fill="none" stroke="#30363d" stroke-width="1" opacity="0.85"/><polygon points="0.0,-159.0 137.7,-79.5 137.7,79.5 0.0,159.0 -137.7,79.5 -137.7,-79.5" fill="none" stroke="#30363d" stroke-width="1" opacity="0.72"/><polygon points="0.0,-106.0 91.8,-53.0 91.8,53.0 0.0,106.0 -91.8,53.0 -91.8,-53.0" fill="none" stroke="#30363d" stroke-width="1" opacity="0.60"/><polygon points="0.0,-53.0 45.9,-26.5 45.9,26.5 0.0,53.0 -45.9,26.5 -45.9,-26.5" fill="none" stroke="#30363d" stroke-width="1" opacity="0.47"/><line x1="0" y1="0" x2="0.0" y2="-212.0" stroke="#21262d" stroke-width="1"/><line x1="0" y1="0" x2="183.6" y2="-106.0" stroke="#21262d" stroke-width="1"/><line x1="0" y1="0" x2="183.6" y2="106.0" stroke="#21262d" stroke-width="1"/><line x1="0" y1="0" x2="0.0" y2="212.0" stroke="#21262d" stroke-width="1"/><line x1="0" y1="0" x2="-183.6" y2="106.0" stroke="#21262d" stroke-width="1"/><line x1="0" y1="0" x2="-183.6" y2="-106.0" stroke="#21262d" stroke-width="1"/><g><animateTransform attributeName="transform" type="scale" values="0.04;1" dur="1.1s" calcMode="spline" keyTimes="0;1" keySplines="0.22 1 0.36 1" fill="freeze"/><polygon points="0.0,-212.0 156.8,-90.5 152.6,88.1 0.0,150.1 -44.1,25.4 -36.4,-21.0" fill="#39d353" fill-opacity="0.22" stroke="#3fb950" stroke-width="2.5" stroke-linejoin="round"/><circle cx="0.0" cy="-212.0" r="3.6" fill="#7ee787" stroke="#3fb950" stroke-width="1.2"/><circle cx="156.8" cy="-90.5" r="3.6" fill="#7ee787" stroke="#3fb950" stroke-width="1.2"/><circle cx="152.6" cy="88.1" r="3.6" fill="#7ee787" stroke="#3fb950" stroke-width="1.2"/><circle cx="0.0" cy="150.1" r="3.6" fill="#7ee787" stroke="#3fb950" stroke-width="1.2"/><circle cx="-44.1" cy="25.4" r="3.6" fill="#7ee787" stroke="#3fb950" stroke-width="1.2"/><circle cx="-36.4" cy="-21.0" r="3.6" fill="#7ee787" stroke="#3fb950" stroke-width="1.2"/></g><text x="0.0" y="-237.0" text-anchor="middle" font-size="13" font-weight="600" fill="#c9d1d9">JavaScript</text><text x="0.0" y="-222.0" text-anchor="middle" font-size="11" fill="#8b949e">100</text><text x="200.9" y="-121.0" text-anchor="start" font-size="13" font-weight="600" fill="#c9d1d9">Jupyter Notebook</text><text x="200.9" y="-106.0" text-anchor="start" font-size="11" fill="#8b949e">85.4</text><text x="200.9" y="130.0" text-anchor="start" font-size="13" font-weight="600" fill="#c9d1d9">Python</text><text x="200.9" y="145.0" text-anchor="start" font-size="11" fill="#8b949e">83.1</text><text x="0.0" y="246.0" text-anchor="middle" font-size="13" font-weight="600" fill="#c9d1d9">TypeScript</text><text x="0.0" y="261.0" text-anchor="middle" font-size="11" fill="#8b949e">70.8</text><text x="-200.9" y="130.0" text-anchor="end" font-size="13" font-weight="600" fill="#c9d1d9">PLpgSQL</text><text x="-200.9" y="145.0" text-anchor="end" font-size="11" fill="#8b949e">24</text><text x="-200.9" y="-121.0" text-anchor="end" font-size="13" font-weight="600" fill="#c9d1d9">Java</text><text x="-200.9" y="-106.0" text-anchor="end" font-size="11" fill="#8b949e">19.8</text></g></svg>