<svg xmlns="http://www.w3.org/2000/svg" viewBox="0 0 658 526" width="658" height="526" role="img" aria-label="Skill Radar" font-family="ui-sans-serif,-apple-system,Segoe UI,Helvetica,Arial,sans-serif"><text x="329.0" y="25" text-anchor="middle" font-size="15" font-weight="700" fill="#e6edf3">Skill Radar</text><g transform="translate(341.0,289.0)"><polygon points="0.0,-212.0 165.7,-132.2 206.7,47.2 92.0,191.0 -92.0,191.0 -206.7,47.2 -165.7,-132.2" fill="none" stroke="#30363d" stroke-width="1" opacity="0.85"/><polygon points="0.0,-159.0 124.3,-99.1 155.0,35.4 69.0,143.3 -69.0,143.3 -155.0,35.4 -124.3,-99.1" fill="none" stroke="#30363d" stroke-width="1" opacity="0.72"/><polygon points="0.0,-106.0 82.9,-66.1 103.3,23.6 46.0,95.5 -46.0,95.5 -103.3,23.6 -82.9,-66.1" fill="none" stroke="#30363d" stroke-width="1" opacity="0.60"/><polygon points="0.0,-53.0 41.4,-33.0 51.7,11.8 23.0,47.8 -23.0,47.8 -51.7,11.8 -41.4,-33.0" fill="none" stroke="#30363d" stroke-width="1" opacity="0.47"/><line x1="0" y1="0" x2="0.0" y2="-212.0" stroke="#21262d" stroke-width="1"/><line x1="0" y1="0" x2="165.7" y2="-132.2" stroke="#21262d" stroke-width="1"/><line x1="0" y1="0" x2="206.7" y2="47.2" stroke="#21262d" stroke-width="1"/><line x1="0" y1="0" x2="92.0" y2="191.0" stroke="#21262d" stroke-width="1"/><line x1="0" y1="0" x2="-92.0" y2="191.0" stroke="#21262d" stroke-width="1"/><line x1="0" y1="0" x2="-206.7" y2="47.2" stroke="#21262d" stroke-width="1"/><line x1="0" y1="0" x2="-165.7" y2="-132.2" stroke="#21262d" stroke-width="1"/><g><animateTransform attributeName="transform" type="scale" values="0.04;1" dur="1.1s" calcMode="spline" keyTimes="0;1" keySplines="0.22 1 0.36 1" fill="freeze"/><polygon points="0.0,-186.6 140.9,-112.4 165.3,37.7 77.3,160.4 -75.4,156.6 -152.9,34.9 -129.3,-103.1" fill="#39d353" fill-opacity="0.22" stroke="#3fb950" stroke-width="2.5" stroke-linejoin="round"/><circle cx="0.0" cy="-186.6" r="3.6" fill="#7ee787" stroke="#3fb950" stroke-width="1.2"/><circle cx="140.9" cy="-112.4" r="3.6" fill="#7ee787" stroke="#3fb950" stroke-width="1.2"/><circle cx="165.3" cy="37.7" r="3.6" fill="#7ee787" stroke="#3fb950" stroke-width="1.2"/><circle cx="77.3" cy="160.4" r="3.6" fill="#7ee787" stroke="#3fb950" stroke-width="1.2"/><circle cx="-75.4" cy="156.6" r="3.6" fill="#7ee787" stroke="#3fb950" stroke-width="1.2"/><circle cx="-152.9" cy="34.9" r="3.6" fill="#7ee787" stroke="#3fb950" stroke-width="1.2"/><circle cx="-129.3" cy="-103.1" r="3.6" fill="#7ee787" stroke="#3fb950" stroke-width="1.2"/></g><text x="0.0" y="-237.0" text-anchor="middle" font-size="13" font-weight="600" fill="#c9d1d9">Python</text><text x="181.4" y="-149.6" text-anchor="start" font-size="13" font-weight="600" fill="#c9d1d9">C++</text><text x="226.2" y="55.6" text-anchor="start" font-size="13" font-weight="600" fill="#c9d1d9">TypeScript</text><text x="100.7" y="223.0" text-anchor="start" font-size="13" font-weight="600" fill="#c9d1d9">AI / ML &amp; RL</text><text x="-100.7" y="223.0" text-anchor="end" font-size="13" font-weight="600" fill="#c9d1d9">Backend &amp; APIs</text><text x="-226.2" y="55.6" text-anchor="end" font-size="13" font-weight="600" fill="#c9d1d9">Cybersecurity</text><text x="-181.4" y="-149.6" text-anchor="end" font-size="13" font-weight="600" fill="#c9d1d9">Data Structures</text></g></svg>